HIERARCHY
ROOT Hips
{
	OFFSET	0.00	0.00	0.00
	CHANNELS 6 Xposition Yposition Zposition Zrotation Xrotation Yrotation
	JOINT LeftUpLeg
	{
		OFFSET	 0.126116	-0.014019	-0.065224
		CHANNELS 3 Zrotation Xrotation Yrotation
		JOINT LeftLeg
		{
			OFFSET	 0.000000	 0.000000	 0.569914
			CHANNELS 3 Zrotation Xrotation Yrotation
			JOINT LeftFoot
			{
				OFFSET	 0.000000	 0.000000	 0.544423
				CHANNELS 3 Zrotation Xrotation Yrotation
				JOINT LeftToeBase
				{
					OFFSET	 0.000000	 0.000000	 0.207117
					CHANNELS 3 Zrotation Xrotation Yrotation
					End Site
					{
						OFFSET	 0.000000	 0.000000	 0.207117
					}
				}
			}
		}
	}
	JOINT RightUpLeg
	{
		OFFSET	-0.124023	-0.008373	-0.065224
		CHANNELS 3 Zrotation Xrotation Yrotation
		JOINT RightLeg
		{
			OFFSET	 0.000000	 0.000000	 0.570047
			CHANNELS 3 Zrotation Xrotation Yrotation
			JOINT RightFoot
			{
				OFFSET	 0.000000	 0.000000	 0.544354
				CHANNELS 3 Zrotation Xrotation Yrotation
				JOINT RightToeBase
				{
					OFFSET	 0.000000	 0.000000	 0.207540
					CHANNELS 3 Zrotation Xrotation Yrotation
					End Site
					{
						OFFSET	 0.000000	 0.000000	 0.207540
					}
				}
			}
		}
	}
	JOINT Spine
	{
		OFFSET	 0.000184	-0.007763	 0.117403
		CHANNELS 3 Zrotation Xrotation Yrotation
		JOINT Spine1
		{
			OFFSET	 0.000000	 0.000000	 0.137269
			CHANNELS 3 Zrotation Xrotation Yrotation
			JOINT Spine2
			{
				OFFSET	 0.000000	 0.000000	 0.156879
				CHANNELS 3 Zrotation Xrotation Yrotation
				JOINT LeftShoulder
				{
					OFFSET	 0.080501	-0.002496	 0.160144
					CHANNELS 3 Zrotation Xrotation Yrotation
					JOINT LeftArm
					{
						OFFSET	 0.000000	 0.000000	 0.164363
						CHANNELS 3 Zrotation Xrotation Yrotation
						JOINT LeftForeArm
						{
							OFFSET	 0.000000	 0.000000	 0.364576
							CHANNELS 3 Zrotation Xrotation Yrotation
							JOINT LeftHand
							{
								OFFSET	 0.000000	 0.000000	 0.360812
								CHANNELS 3 Zrotation Xrotation Yrotation
								JOINT LeftHandIndex1
								{
									OFFSET	 0.000000	 0.000000	 0.086006
									CHANNELS 3 Zrotation Xrotation Yrotation
									JOINT LeftHandIndex2
									{
										OFFSET	 0.000000	 0.000000	 0.047237
										CHANNELS 3 Zrotation Xrotation Yrotation
										JOINT LeftHandIndex3
										{
											OFFSET	-0.004284	-0.000551	 0.038165
											CHANNELS 3 Zrotation Xrotation Yrotation
											End Site
											{
												OFFSET	-0.004284	-0.000551	 0.038165
											}
										}
									}
								}
							}
						}
					}
				}
				JOINT Neck
				{
					OFFSET	 0.000000	 0.000000	 0.176489
					CHANNELS 3 Zrotation Xrotation Yrotation
					JOINT Head
					{
						OFFSET	 0.000000	-0.001747	 0.077940
						CHANNELS 3 Zrotation Xrotation Yrotation
						End Site
						{
							OFFSET	 0.000000	-0.001747	 0.077940
						}
					}
				}
				JOINT RightShoulder
				{
					OFFSET	-0.080363	 0.000306	 0.159706
					CHANNELS 3 Zrotation Xrotation Yrotation
					JOINT RightArm
					{
						OFFSET	 0.000000	 0.000000	 0.164196
						CHANNELS 3 Zrotation Xrotation Yrotation
						JOINT RightForeArm
						{
							OFFSET	 0.000000	 0.000000	 0.365611
							CHANNELS 3 Zrotation Xrotation Yrotation
							JOINT RightHand
							{
								OFFSET	 0.000000	 0.000000	 0.360648
								CHANNELS 3 Zrotation Xrotation Yrotation
								JOINT RightHandIndex1
								{
									OFFSET	 0.000000	 0.000000	 0.069977
									CHANNELS 3 Zrotation Xrotation Yrotation
									JOINT RightHandIndex2
									{
										OFFSET	 0.000000	 0.000000	 0.052305
										CHANNELS 3 Zrotation Xrotation Yrotation
										JOINT RightHandIndex3
										{
											OFFSET	 0.009002	-0.000782	 0.042196
											CHANNELS 3 Zrotation Xrotation Yrotation
											End Site
											{
												OFFSET	 0.009002	-0.000782	 0.042196
											}
										}
									}
								}
							}
						}
					}
				}
			}
		}
	}
}
MOTION
Frames:    13
Frame Time: 0.03333334
-0.726881	-0.006102	 1.271290	-176.629500	-6.411793	 1.013330	 1.782425	 3.261202	 178.424100	-6.380821	-15.894730	-2.160867	 3.305579	 73.744390	-11.697070	-2.385833	 28.452760	 0.000004	 0.164770	 5.849084	 178.582700	 3.515868	-12.428380	 0.805212	-3.605026	 71.509410	 8.358806	 2.384659	 28.388700	-0.000001	-9.282972	 7.019255	-2.047077	-4.186055	 10.087000	 0.909417	 7.933858	-7.864407	 3.953378	-91.776230	 78.527420	-180.000000	-32.305790	 10.810620	 15.641860	-15.971970	-4.094753	-59.389450	-2.348606	-21.730260	-2.506339	-4.130354	 21.526190	 0.991307	-5.167926	 0.731697	 3.519349	-1.378229	 35.397820	-2.634230	-9.319776	 1.463674	 4.885889	-3.014701	-18.328930	-5.722330	 89.782160	 78.203850	 180.000000	 4.056051	 4.057225	-13.633840	 10.481760	-3.122332	 65.601160	 43.200020	 49.067290	 22.188380	 5.716295	 19.173350	-3.684826	 5.027458	 0.246833	-9.377971	-2.350882	 35.473990	 5.254307
-0.726990	-0.006132	 1.270651	-176.547300	-6.301767	 0.941876	 1.820563	 2.536529	 178.273900	-6.504700	-17.830860	-2.454321	 1.820168	 75.204440	-10.094140	-2.385833	 28.452760	 0.000004	 0.223660	 5.492698	 178.677500	 3.563777	-14.047150	 0.919763	-3.988910	 72.849250	 8.699628	 2.384659	 28.388700	-0.000001	-9.980149	 6.819824	-1.950494	-4.665681	 9.375244	 0.468806	 7.960197	-7.236187	 4.197525	-91.776150	 78.527400	 180.000000	-30.822160	 17.621270	 22.979200	-16.765130	-4.854741	-71.457190	-2.411475	-21.749770	-2.533434	-4.130354	 21.526190	 0.991307	-5.167926	 0.731697	 3.519349	-1.378229	 35.397820	-2.634230	-9.258520	 1.372646	 4.868528	-2.965950	-18.108800	-5.744163	 89.782170	 78.203890	 179.999900	 3.514562	 9.384030	-15.484200	 11.048700	-3.353414	 75.795380	 42.588970	 44.174270	 20.766840	 5.716295	 19.173350	-3.684826	 5.027458	 0.246833	-9.377971	-2.350882	 35.473990	 5.254307
-0.727051	-0.006151	 1.270190	-176.502700	-6.219509	 0.901837	 1.833913	 2.078360	 178.153100	-6.589162	-19.094930	-2.649935	 0.609474	 76.164800	-8.805432	-2.385833	 28.452760	 0.000004	 0.256987	 5.319398	 178.735300	 3.594068	-15.035420	 0.990907	-4.246361	 73.726550	 8.926676	 2.384659	 28.388700	-0.000001	-10.463840	 6.673070	-1.894624	-5.012831	 8.880459	 0.136626	 7.973469	-6.806875	 4.379587	-91.776220	 78.527400	-180.000000	-29.593350	 22.696270	 27.190760	-17.289290	-5.219141	-78.062130	-2.451909	-21.759460	-2.547514	-4.130354	 21.526190	 0.991307	-5.167926	 0.731697	 3.519349	-1.378229	 35.397820	-2.634230	-9.222508	 1.319098	 4.858391	-2.937319	-17.979400	-5.757308	 89.782100	 78.203850	 180.000000	 2.811638	 13.446660	-16.057520	 11.403080	-3.443107	 81.830320	 41.056080	 40.956500	 20.069170	 5.716295	 19.173350	-3.684826	 5.027458	 0.246833	-9.377971	-2.350882	 35.473990	 5.254307
-0.727251	-0.006190	 1.268576	-176.519600	-5.809226	 0.668614	 2.132660	 0.725517	 177.761600	-6.934833	-22.819260	-3.277086	-5.663447	 78.764510	-2.147374	-2.385833	 28.452760	 0.000004	 0.695737	 4.834571	 178.976200	 3.537465	-18.013820	 1.163622	-5.903052	 76.655340	 10.681090	 2.384659	 28.388700	-0.000001	-12.100250	 6.009276	-1.423532	-6.270716	 7.036576	-1.536198	 8.099728	-4.983332	 5.254317	-91.776190	 78.527420	-180.000000	-23.505920	 42.299110	 34.812970	-18.433400	-5.646412	-90.429540	-2.752799	-21.877820	-2.575373	-4.130354	 21.526190	 0.991307	-5.167926	 0.731697	 3.519349	-1.378229	 35.397820	-2.634230	-8.894527	 0.837582	 4.571823	-2.701149	-17.225100	-5.076171	 89.782010	 78.203870	-179.999900	-2.865414	 29.398690	-13.097550	 12.313390	-3.813946	 96.234410	 28.930660	 32.104070	 20.212830	 5.716295	 19.173350	-3.684826	 5.027458	 0.246833	-9.377971	-2.350882	 35.473990	 5.254307
-0.727380	-0.006340	 1.265773	-176.678900	-4.921762	 1.165477	 2.192079	-1.443814	 176.046300	-7.381522	-29.051610	-4.321417	-28.301220	 83.558500	 20.798950	-2.385833	 28.452760	 0.000004	 1.350868	 5.330195	 178.507000	 3.310967	-20.637030	 1.246004	-6.497251	 80.338080	 11.351220	 2.384659	 28.388700	-0.000001	-15.170880	 5.465385	-1.971164	-8.875299	 2.915870	-4.888533	 8.225523	-1.457126	 7.162120	-91.776210	 78.527400	-180.000000	 10.645550	 72.534000	-3.435895	-15.899680	-5.683576	-66.281620	-2.680849	-21.751360	-2.642421	-4.130354	 21.526190	 0.991307	-5.167926	 0.731697	 3.519349	-1.378229	 35.397820	-2.634230	-8.356214	 0.473990	 4.549300	-2.270453	-15.750800	-5.508771	 89.782110	 78.203890	 180.000000	-39.720720	 55.215650	 24.054610	 12.400090	-5.718069	 95.036100	-7.484449	 19.912280	 29.784720	 5.716295	 19.173350	-3.684826	 5.027458	 0.246833	-9.377971	-2.350882	 35.473990	 5.254307
-0.728296	-0.006611	 1.265820	-176.852500	-3.869468	 1.255707	 2.970697	-2.890992	 175.387000	-7.530184	-31.306510	-4.701516	-42.390370	 84.432400	 35.007610	-2.385833	 28.452760	 0.000004	 2.313799	 4.921186	 178.411800	 3.225806	-21.616530	 1.270890	-6.113885	 82.170200	 10.992660	 2.384659	 28.388700	-0.000001	-16.855000	 5.506365	-1.910809	-10.375210	-0.794192	-7.567005	 8.332910	 1.726584	 8.449681	-91.776180	 78.527430	-180.000000	 24.243120	 73.209370	-41.003250	-12.292710	-1.826714	-16.613030	-2.675676	-22.040890	-2.627547	-4.130354	 21.526190	 0.991307	-5.167926	 0.731697	 3.519349	-1.378229	 35.397820	-2.634230	-7.447630	-0.192582	 3.837121	-1.687547	-13.948630	-4.862253	 89.782160	 78.203890	 179.999900	-63.868110	 54.204690	 50.970420	 11.393770	-7.096113	 85.933190	-21.019890	 13.985020	 35.841320	 5.716295	 19.173350	-3.684826	 5.027458	 0.246833	-9.377971	-2.350882	 35.473990	 5.254307
-0.730488	-0.007072	 1.268923	-177.408100	-3.353893	 0.721286	 4.439829	-3.285366	 176.210800	-7.771710	-30.441030	-4.709409	-32.761430	 84.052980	 25.595450	-2.385833	 28.452760	 0.000004	 3.302876	 3.608104	 179.117700	 3.136724	-22.285380	 1.274343	-4.699833	 82.353350	 9.696767	 2.384659	 28.388700	-0.000001	-16.593870	 6.367945	-1.006738	-10.571340	-3.650745	-8.388176	 8.297657	 4.167731	 8.456624	-91.776170	 78.527420	-180.000000	 23.482320	 72.796280	-30.465760	-13.637960	-3.249497	-34.282940	-2.643943	-22.438000	-2.583214	-4.130354	 21.526190	 0.991307	-5.167926	 0.731697	 3.519349	-1.378229	 35.397820	-2.634230	-6.933790	-0.407715	 3.556576	-1.348086	-12.461140	-5.036170	 89.782150	 78.203900	 180.000000	-58.378810	 52.865040	 43.152710	 13.052210	-8.008028	 98.235870	-16.839680	 21.396290	 31.019070	 5.716295	 19.173350	-3.684826	 5.027458	 0.246833	-9.377971	-2.350882	 35.473990	 5.254307
-0.732174	-0.011069	 1.271971	-178.183300	-2.896802	 1.264878	 5.171664	-4.069146	 175.823000	-8.259691	-30.448090	-4.962761	-38.272910	 85.361470	 31.395360	-2.385833	 28.452760	 0.000004	 4.519392	 2.550505	 178.574400	 2.814289	-22.278860	 1.151433	-2.980167	 81.586520	 8.281841	 2.384659	 28.388700	-0.000001	-16.317620	 8.394358	-1.333876	-10.982290	-7.293435	-9.438202	 8.190650	 7.715481	 8.418718	-91.776180	 78.527380	-180.000000	 23.307890	 71.523360	-27.258320	-14.505650	-3.296314	-40.251350	-2.310679	-22.736370	-2.534728	-4.130354	 21.526190	 0.991307	-5.167926	 0.731697	 3.519349	-1.378229	 35.397820	-2.634230	-6.258664	-0.707409	 2.628738	-0.922502	-10.164220	-3.643702	 89.782090	 78.203890	 180.000000	-53.479870	 50.905800	 38.560520	 14.474540	-8.848599	 106.312000	-13.473840	 27.469850	 26.675640	 5.716295	 19.173350	-3.684826	 5.027458	 0.246833	-9.377971	-2.350882	 35.473990	 5.254307
-0.733685	-0.018969	 1.274459	-178.387500	-1.939780	 1.257863	 6.032950	-5.513198	 175.763900	-8.506275	-30.414130	-5.085402	-36.483700	 84.992030	 29.876870	-2.385833	 28.452760	 0.000004	 5.153836	 0.579141	 178.595300	 2.699844	-23.276870	 1.154861	-3.332642	 81.936400	 8.797001	 2.384659	 28.388700	-0.000001	-16.811110	 10.153920	-1.259977	-11.644080	-10.653260	-10.724260	 8.175308	 10.917480	 8.573382	-91.776200	 78.527380	-180.000000	 26.115610	 70.448780	-30.725100	-15.276580	-2.668969	-40.557270	-2.310930	-23.205100	-2.468245	-4.130354	 21.526190	 0.991307	-5.167926	 0.731697	 3.519349	-1.378229	 35.397820	-2.634230	-5.597664	 0.028729	 2.052898	-0.490421	-9.198664	-3.015095	 89.782160	 78.203900	 179.999900	-52.246980	 48.826080	 38.631320	 15.032590	-9.277374	 108.767500	-13.194430	 30.335700	 25.790000	 5.716295	 19.173350	-3.684826	 5.027458	 0.246833	-9.377971	-2.350882	 35.473990	 5.254307
-0.736221	-0.031230	 1.277812	-179.074600	-0.632132	 0.461799	 7.489576	-7.623756	 176.971600	-8.659454	-29.977540	-5.097901	-26.993220	 84.215520	 20.578690	-2.385833	 28.452760	 0.000004	 6.426974	-2.468451	 179.834500	 2.681107	-24.825970	 1.219113	-1.606706	 81.938000	 7.165691	 2.384659	 28.388700	-0.000001	-16.566710	 12.573460	-0.417482	-12.290820	-14.570140	-11.939310	 8.091867	 14.460970	 8.244685	-91.776180	 78.527380	-180.000000	 30.220690	 69.170550	-36.491030	-16.212970	-2.024410	-42.885830	-2.210725	-23.584840	-2.378569	-4.130354	 21.526190	 0.991307	-5.167926	 0.731697	 3.519349	-1.378229	 35.397820	-2.634230	-5.164852	 0.598360	 1.762318	-0.186176	-8.279377	-2.433863	 89.782120	 78.203890	 180.000000	-48.986510	 47.382920	 38.103980	 14.873650	-9.474846	 107.530200	-12.903150	 31.735810	 26.442820	 5.716295	 19.173350	-3.684826	 5.027458	 0.246833	-9.377971	-2.350882	 35.473990	 5.254307
-0.741657	-0.049829	 1.280044	-179.603000	 1.279796	 0.287330	 8.794995	-11.067550	 177.738600	-8.727541	-30.218270	-5.169873	-22.746060	 83.230330	 16.411190	-2.385833	 28.452760	 0.000004	 7.642121	-6.191353	-179.359100	 2.686221	-25.772760	 1.264699	-2.276038	 81.150670	 7.946643	 2.384659	 28.388700	-0.000001	-16.531260	 15.032880	-0.174721	-13.038630	-15.358860	-14.796700	 8.015359	 15.937710	 9.199808	-91.776170	 78.527420	-180.000000	 33.989520	 68.348930	-42.887810	-16.875600	-1.582784	-46.234410	-2.273875	-24.025380	-2.312440	-4.130354	 21.526190	 0.991307	-5.167926	 0.731697	 3.519349	-1.378229	 35.397820	-2.634230	-4.668630	 0.123991	 1.484001	 0.127179	-7.166474	-1.217016	 89.782100	 78.203870	 180.000000	-43.812560	 45.537330	 38.031230	 14.123030	-9.485077	 103.272100	-13.489800	 32.790560	 28.864040	 5.716295	 19.173350	-3.684826	 5.027458	 0.246833	-9.377971	-2.350882	 35.473990	 5.254307
-0.752363	-0.076498	 1.280023	 179.626600	 3.895860	-0.296465	 10.300390	-15.611990	 179.914500	-8.672881	-30.576330	-5.196476	-15.698790	 82.135310	 9.024118	-2.385833	 28.452760	 0.000004	 9.259693	-12.229660	-176.926600	 2.872571	-28.883650	 1.495135	 1.322465	 81.174640	 4.046761	 2.384659	 28.388700	-0.000001	-16.108120	 17.707980	 0.101462	-12.956020	-12.120410	-17.797970	 8.061690	 14.171820	 10.989150	-91.776140	 78.527400	 180.000000	 38.195290	 67.151990	-49.478450	-17.579970	-1.046507	-52.220760	-2.305118	-24.081670	-2.229792	-4.130354	 21.526190	 0.991307	-5.167926	 0.731697	 3.519349	-1.378229	 35.397820	-2.634230	-4.309921	 0.167711	 1.078637	 0.269068	-7.862301	-0.017173	 89.782120	 78.203870	 180.000000	-37.755840	 43.635680	 39.535170	 12.765270	-9.831652	 95.071730	-16.366080	 30.857740	 34.535860	 5.716295	 19.173350	-3.684826	 5.027458	 0.246833	-9.377971	-2.350882	 35.473990	 5.254307
-0.770468	-0.117113	 1.272427	 178.568600	 8.202403	-1.176517	 12.338240	-24.461530	-176.470200	-8.376425	-33.303580	-5.440276	-5.860488	 80.657670	-2.270446	-2.385833	 28.452760	 0.000004	 11.933240	-22.131020	-172.519100	 3.265302	-34.284920	 1.965197	 11.609360	 80.741100	-7.370409	 2.384659	 28.388700	-0.000001	-14.557820	 20.054680	-1.359938	-10.888430	-1.888184	-19.967670	 9.119065	 7.483533	 13.183020	-91.776120	 78.527380	 180.000000	 42.993360	 66.142110	-56.216790	-17.964730	-0.792653	-61.725010	-2.304270	-24.010080	-2.162871	-4.130354	 21.526190	 0.991307	-5.167926	 0.731697	 3.519349	-1.378229	 35.397820	-2.634230	-4.423048	 0.433374	 2.028268	 0.407367	-9.715489	-0.270490	 89.782100	 78.203870	 180.000000	-29.924730	 40.753620	 43.201880	 10.113520	-10.162930	 79.991780	-20.838870	 23.614210	 43.602540	 5.716295	 19.173350	-3.684826	 5.027458	 0.246833	-9.377971	-2.350882	 35.473990	 5.254307
